<svg xmlns="http://www.w3.org/2000/svg" width='25px' height='25px' xml:space="preserve" style="enable-background:new 0 0 512 512" viewBox="0 0 512 512">
    <path d="M165.3 107.2c-23.7 0-42.8 19.1-43.1 42.6-.3 23.6 19.3 43.5 43 43.5 23.9-.1 43-19.2 43.1-43.1-.1-23.7-19.4-43-43-43zm35.1 47.3c.2 1.8-.3 3.8-.8 5.6-4.2 13.6-13.1 22.2-26.9 25.8-.3.1-.6.2-.9.2h-.9c-3.5 0-6.3-2.3-6.8-5.8s1.6-6.6 5.1-7.5c5.9-1.5 10.9-4.5 14.1-9.7 1.7-2.8 2.7-6 3.7-9.2s3.6-5.4 6.7-5.4c3.5.2 6.4 2.5 6.7 6zm-51 239.5v-92c.9.8 1.9 1.7 3 2.4 5.6 4.2 11.9 6.6 19.1 5.6 3.6-.5 6.7-2.1 9.4-4.3v56.9c-11.4 9.2-21.2 20.5-28.9 33.5-.9-.7-1.8-1.4-2.6-2.1z" class="st0"></path>
  <path d="m388.7 96.9.1 415.8 45.2-.2V96.9h-45.3zm50.2 0H480c12.2 0 18.3-14.9 9.7-23.5L421 4.7c-5.4-5.4-14-5.3-19.5 0l-68.7 68.8c-8 7.9-3.7 23.3 9.6 23.4h96.5zM139.4 200.8c-3.8 10.9-8.5 21-14.6 30.6-5.1 8-11 15.5-18.5 21.5-9 7.2-19.1 11.7-30.9 11.1-9.2-.5-15.3-5.3-18.7-13.6-4-9.6-3.2-19.2.4-28.7 4.7-12.4 12.9-22.2 23.7-29.8 9.9-7 20.7-12 32.3-15.5 1.4-.4 1.9-.1 2.6 1.1 5.3 9.6 12.8 17.1 22.4 22.4.4.2.8.5 1.3.9zm52.1-102.9c6.7-17.9 15.5-34.5 29.6-47.8 8.7-8.2 18.9-13.3 31-13.8 7.8-.3 14.6 2.1 19 8.9 4.3 6.5 5.9 13.9 4.9 21.7-2 17-11.3 29.8-24.4 40-10.7 8.3-22.9 13.7-36 17.4-3-5.3-6.3-10.1-10.5-14.3-3.7-3.7-7.9-6.9-12.5-9.4-1.2-.5-1.7-1.1-1.1-2.7zM54.2 77c-2.3-6.1-3.3-12.5-2.4-19 1.2-8.1 6-13.2 13.3-16.3 9.5-3.9 18.9-3.2 28.3.3 11.8 4.4 21.3 12 28.8 22 8.2 11.1 14.3 24.2 17.1 35.8-10.8 5.7-18.9 13.9-24.8 25-6.4-2.8-12.9-5.3-19-8.5-6.5-3.5-12.9-7.2-18.8-11.6-9.8-7.2-18.1-15.9-22.5-27.7zM135 57.1c-.7-4.6-.9-9.3-1.4-14 .1-9.4 1.9-18.3 6.5-26.5 2.9-5.3 6.7-9.8 11.8-13 6.3-4 12.9-3.6 19.5-.9 8.7 3.6 14.5 10.2 18.8 18.3 4 7.8 5.9 16.2 6.3 24.9.6 12.6-2.3 24.6-7 36.1-1.7 4.3-3.9 8.4-5.8 12.6-.5 1.2-1.1 1.6-2.5 1.2-10.6-3.1-21.1-3.1-31.7 0-1.4.4-1.9.1-2.5-1.2-5.7-11.9-10-24.3-12-37.5zm143.7 177.1c.7 7 0 13.8-5.3 19.1-4.4 4.5-10.1 6.8-16.3 7.6-13 1.6-24.2-2.8-34.6-10.3-10.9-7.8-18.5-18.4-24.1-30.3-2.9-6.3-5.3-12.8-7.9-19.4 11.1-5.9 19.4-14 25.3-25.3 6.9 3.1 13.7 5.9 20.3 9.2 10.9 5.5 20.7 12.4 29.1 21.3 7.4 8 12.4 17.2 13.5 28.1zm-95.4-28.9c7.6 16.5 12.9 33.5 13.2 52.4 0 12.7-3.3 24.8-12.6 34.7-3.4 3.6-7.4 6.4-12.4 7.1-7.2 1-13.5-1.4-19.1-5.6-8.9-6.6-13.8-15.7-16.4-26.2-4-15.5-1.8-30.6 3.6-45.3 2.1-5.6 4.9-11 7.3-16.5.6-1.3 1.2-1.7 2.7-1.2 10.7 3.2 21.4 3 32-.1.9-.5 1.3-.1 1.7.7zM58.1 181.7c-8.3 0-16.2-1.5-23.7-5-6.1-2.8-11.3-6.8-15.2-12.3-4.5-6.4-4.4-13.2-1.5-20.2 3.6-8.6 10-14.5 18.1-18.7 7.9-4.1 16.3-6 25.2-6.4 12.5-.6 24.3 2.3 35.8 6.8 4.5 1.8 8.7 4 13 6.1 1.1.5 1.5 1 1.1 2.4-3.2 10.7-3.1 21.4 0 32 .4 1.2 0 1.6-1 2.1-13 6.1-26.5 10.6-40.8 12.4-3.6.3-7.3.5-11 .8zm254.4-25.1c-3.7 8.7-10.4 14.5-18.6 18.7-6.3 3.2-13.1 5.1-20.1 5.7-2.5.2-5.1.4-7.6.6-11.2-.1-21.9-2.8-32.2-6.9-4.6-1.8-9-4.2-13.6-6.3-1.1-.5-1.4-1-1-2.3 3.2-10.7 3.1-21.4 0-32.1-.3-1.2-.1-1.6.9-2.1 12.9-6 26.3-10.5 40.5-12.3 10.9-1.4 21.7-1.3 32.2 2.8 6.1 2.4 11.5 5.8 15.9 10.8 6.4 7.1 7.3 14.9 3.6 23.4zm-21.4 192.8c0 57.1-43.3 103.9-98.7 109.6-5.3-19.8-15.2-38-29.1-53 18.8-33.8 54.9-56.7 96.3-56.7h31.5v.1zM180.9 491.2v21.5h-31.5v-21.6c-60.9 0-110.2-49.3-110.2-110.2h31.5c60.9 0 110.3 49.4 110.2 110.3z"></path>
</svg>
