<svg xmlns="http://www.w3.org/2000/svg" width='25px' height='25px' xmlns:xlink="http://www.w3.org/1999/xlink" version="1.1" x="0" y="0" viewBox="0 0 256 256" enable-background="new 0 0 256 256" xml:space="preserve"><script xmlns=""/>
<metadata> Svg Vector Icons : http://www.onlinewebfonts.com/icon </metadata>
<g><g><g><path fill="#000000" d="M11.3,23.9c-1.6,1.5-1.7,3.9-0.4,5.4c0.5,0.6,5.2,4.1,10.3,7.7c9.8,6.9,15.3,10,21.7,11.9c9.4,2.8,9.4,2.8,37.6,3.1l26.4,0.2v8.7c0,4.7-0.1,8.6-0.2,8.6c-0.2,0-2.8,0.5-5.9,1.1c-24.1,4.6-45.2,18.8-58.3,38.9c-5.9,9.1-5.5,8.1-20.3,51.1l-11.9,34.5v4.7c-0.1,5.9,1.3,9.6,4.7,13.4c4.7,5.3,10,7.4,18.4,7.4h6v6.3v6.3H128h88.5V227v-6.3h5.5c8.6,0,14.3-2.2,18.9-7.4c3.4-3.8,4.7-7.5,4.7-13.4v-4.7l-12.2-35.6c-12.7-37-15-42.7-20.5-50.9C200,89.4,178.4,75,156.2,70.8c-2.6-0.5-5.3-0.9-5.9-1.1c-1.2-0.2-1.2-0.3-1.2-8.8v-8.7l26.5-0.2c28.1-0.2,28.1-0.2,37.5-3.1c6.3-1.9,11.9-5,21.7-11.9c5.2-3.6,9.9-7.1,10.3-7.7c1.4-1.5,1.2-3.9-0.4-5.4l-1.3-1.3H128H12.6L11.3,23.9z M228.1,31.3c0,0.4-7.7,5.5-10.4,6.8c-4.3,2.2-10.3,4-15.8,4.8c-7.7,1.2-140.1,1.2-147.8,0c-5.6-0.8-11.5-2.6-15.8-4.8c-2.9-1.4-10.4-6.3-10.4-6.7c0-0.2,45-0.3,100.1-0.3C183.1,31.1,228.1,31.2,228.1,31.3z M140.6,60.6V69H128h-12.6v-8.4v-8.4H128h12.6V60.6z M154.4,78.9c25.4,5.2,45.5,20.4,56.3,42.8c1.6,3.3,7.3,19.2,14.8,41c11,32.1,12.1,35.8,12,38.3c-0.3,3.7-2.6,7.3-5.9,9.4L229,212H128H27l-2.6-1.6c-3.4-2.2-6-6.3-6-9.8c0-1.8,2.9-11,11.4-35.9C36,146.4,42,129.3,43,126.7c9-22.6,28.4-39.8,52.6-46.4c9.1-2.4,13.5-2.8,34.2-2.6C147,77.7,149.3,77.9,154.4,78.9z M208.1,222.8v2.1H128H47.9v-2.1v-2.1H128h80.1V222.8z"/><path fill="#000000" d="M118.5,95.3c-16.8,3.6-31.5,15.9-37.5,31.3c-6,15.5-4.3,31.7,4.7,45.5c11.2,17,31.1,25.9,50.3,22.6c6.2-1.1,12.5-3.5,17.8-6.7c5.9-3.6,13.6-11.3,17.2-17.2c12-19.6,9.2-43.7-7-60.5C152,97.5,134.6,91.9,118.5,95.3z M135,103.3c22.8,3.5,38.3,25.3,34.6,48.4c-1.4,9-5.3,16.5-11.8,23c-8.2,8.1-18.4,12.3-30.1,12.3c-26.2-0.1-45.4-23-41.3-49.2c2.2-14.3,12.2-26.9,25.5-32C119.3,102.9,127.2,102.1,135,103.3z"/><path fill="#000000" d="M139.5,127.3l-6.1,6.1l-2.5-0.6c-8.4-2.1-16.8,5.7-15.4,14.2c0.7,4.5,5.8,9.6,10.3,10.3c4.7,0.8,9.6-1.5,12.5-5.9c1.9-2.9,2.5-6.2,1.7-9.5l-0.6-2.5l6.2-6.2c3.4-3.4,6.1-6.4,6-6.6c-0.2-0.5-5.5-5.4-5.8-5.4C145.8,121.2,142.9,123.9,139.5,127.3z M131.2,141.7c0.7,0.7,1.1,1.7,1.1,3.2c0,2.8-1.4,4.2-4.2,4.2c-1.4,0-2.5-0.4-3.2-1.1c-0.7-0.7-1.1-1.7-1.1-3.2c0-1.4,0.4-2.5,1.1-3.2s1.7-1.1,3.2-1.1C129.4,140.6,130.5,141,131.2,141.7z"/><path fill="#000000" d="M31.6,186.9c-1.7,1.4-5,11-4.6,13.5c0.4,2.8,1.7,4.5,4.2,5.7c2,0.8,3.6,1,14.2,1h12.1l1.5-1.5c1.9-1.9,2-3.8,0.2-5.6c-1.3-1.3-1.3-1.3-12.4-1.3c-6.1,0-11.1-0.1-11.1-0.2c0-0.1,0.6-2,1.3-4.1c1.6-4.8,1.6-5.5,0-7.1C35.6,185.7,33.2,185.5,31.6,186.9z"/><path fill="#000000" d="M66.1,199.9c-2.2,2.1-1.6,5.1,1.2,6.5c2.5,1.3,5.9-0.9,5.9-3.7c0-2.1-2.1-4.1-4.2-4.1C68,198.6,66.9,199.1,66.1,199.9z"/></g></g></g>
</svg>